<svg width="18" height="18" viewBox="0 0 18 18" fill="none" xmlns="http://www.w3.org/2000/svg">
<path d="M9.62259 1.63499C9.22719 1.45464 8.773 1.45464 8.37759 1.63499L1.9501 4.55999C1.67817 4.6799 1.50269 4.94905 1.50269 5.24624C1.50269 5.54343 1.67817 5.81259 1.9501 5.93249L8.3851 8.86499C8.7805 9.04535 9.23469 9.04535 9.6301 8.86499L16.0651 5.93999C16.337 5.82009 16.5125 5.55093 16.5125 5.25374C16.5125 4.95655 16.337 4.6874 16.0651 4.56749L9.62259 1.63499" stroke="#0F1723" stroke-width="1.5" stroke-linecap="round" stroke-linejoin="round"/>
<path d="M1.5 9C1.49928 9.29293 1.66916 9.55947 1.935 9.6825L8.385 12.615C8.77828 12.7931 9.22922 12.7931 9.6225 12.615L16.0575 9.69C16.3288 9.56808 16.5024 9.29739 16.5 9" stroke="#0F1723" stroke-width="1.5" stroke-linecap="round" stroke-linejoin="round"/>
<path d="M1.5 12.75C1.49928 13.0429 1.66916 13.3095 1.935 13.4325L8.385 16.365C8.77828 16.5431 9.22922 16.5431 9.6225 16.365L16.0575 13.44C16.3288 13.3181 16.5024 13.0474 16.5 12.75" stroke="#0F1723" stroke-width="1.5" stroke-linecap="round" stroke-linejoin="round"/>
</svg>
