<svg width="18" height="18" viewBox="0 0 18 18" fill="none" xmlns="http://www.w3.org/2000/svg">
<path d="M12 15.75V14.25C12 12.5943 10.6557 11.25 9 11.25H4.5C2.84425 11.25 1.5 12.5943 1.5 14.25V15.75M12 2.34601C13.3232 2.68903 14.2471 3.88311 14.2471 5.25001C14.2471 6.61691 13.3232 7.81098 12 8.15401M16.5 15.75V14.25C16.499 12.8828 15.5737 11.6893 14.25 11.3475" stroke="#9CA3AF" stroke-width="1.5" stroke-linecap="round" stroke-linejoin="round"/>
<path d="M3.75 5.25C3.75 6.90575 5.09425 8.25 6.75 8.25C8.40575 8.25 9.75 6.90575 9.75 5.25C9.75 3.59425 8.40575 2.25 6.75 2.25C5.09425 2.25 3.75 3.59425 3.75 5.25V5.25" stroke="#9CA3AF" stroke-width="1.5" stroke-linecap="round" stroke-linejoin="round"/>
</svg>
