<svg width="18" height="18" viewBox="0 0 18 18" fill="none" xmlns="http://www.w3.org/2000/svg">
<path d="M7.25314 3.10199C7.33878 2.20112 8.09534 1.51306 9.00027 1.51306C9.9052 1.51306 10.6618 2.20112 10.7474 3.10199C10.7978 3.67195 11.1229 4.18155 11.6185 4.4675C12.1141 4.75345 12.718 4.77985 13.2366 4.53824C14.0588 4.16496 15.0301 4.47647 15.4818 5.25832C15.9335 6.04017 15.7182 7.03718 14.9841 7.56299C14.5159 7.89153 14.2372 8.42763 14.2372 8.99962C14.2372 9.5716 14.5159 10.1077 14.9841 10.4362C15.7182 10.9621 15.9335 11.9591 15.4818 12.7409C15.0301 13.5228 14.0588 13.8343 13.2366 13.461C12.718 13.2194 12.1141 13.2458 11.6185 13.5317C11.1229 13.8177 10.7978 14.3273 10.7474 14.8972C10.6618 15.7981 9.9052 16.4862 9.00027 16.4862C8.09534 16.4862 7.33878 15.7981 7.25314 14.8972C7.20283 14.3271 6.87763 13.8173 6.38182 13.5313C5.88601 13.2453 5.28188 13.2191 4.76314 13.461C3.94096 13.8343 2.96971 13.5228 2.51801 12.7409C2.06631 11.9591 2.28158 10.9621 3.01564 10.4362C3.48387 10.1077 3.76261 9.5716 3.76261 8.99962C3.76261 8.42763 3.48387 7.89153 3.01564 7.56299C2.28265 7.03694 2.06794 6.04083 2.51913 5.25953C2.97032 4.47822 3.9404 4.16631 4.76239 4.53824C5.28106 4.77985 5.88495 4.75345 6.38055 4.4675C6.87615 4.18155 7.20124 3.67195 7.25165 3.10199" stroke="#9CA3AF" stroke-width="1.5" stroke-linecap="round" stroke-linejoin="round"/>
<path d="M6.75 9C6.75 10.2418 7.75819 11.25 9 11.25C10.2418 11.25 11.25 10.2418 11.25 9C11.25 7.75819 10.2418 6.75 9 6.75C7.75819 6.75 6.75 7.75819 6.75 9V9" stroke="#9CA3AF" stroke-width="1.5" stroke-linecap="round" stroke-linejoin="round"/>
</svg>
