<svg width="16" height="16" viewBox="0 0 16 16" fill="none" xmlns="http://www.w3.org/2000/svg">
<path d="M6.66675 8.66666C7.24605 9.44113 8.13317 9.9258 9.09785 9.99489C10.0625 10.064 11.0097 9.71067 11.6934 9.02666L13.6934 7.02666C14.9567 5.71874 14.9386 3.63972 13.6528 2.35394C12.367 1.06816 10.288 1.05009 8.98008 2.31333L7.83341 3.45333" stroke="#9CA3AF" stroke-width="1.33333" stroke-linecap="round" stroke-linejoin="round"/>
<path d="M9.33322 7.33333C8.75392 6.55887 7.86681 6.0742 6.90212 6.00511C5.93744 5.93602 4.99031 6.28933 4.30656 6.97333L2.30656 8.97333C1.04332 10.2813 1.06138 12.3603 2.34716 13.6461C3.63294 14.9318 5.71196 14.9499 7.01989 13.6867L8.15989 12.5467" stroke="#9CA3AF" stroke-width="1.33333" stroke-linecap="round" stroke-linejoin="round"/>
</svg>
