<svg width="18" height="18" viewBox="0 0 18 18" fill="none" xmlns="http://www.w3.org/2000/svg">
<path d="M5.25 15.75C5.25 16.1639 5.58606 16.5 6 16.5C6.41394 16.5 6.75 16.1639 6.75 15.75C6.75 15.3361 6.41394 15 6 15C5.58606 15 5.25 15.3361 5.25 15.75V15.75" stroke="#9CA3AF" stroke-width="1.5" stroke-linecap="round" stroke-linejoin="round"/>
<path d="M13.5 15.75C13.5 16.1639 13.8361 16.5 14.25 16.5C14.6639 16.5 15 16.1639 15 15.75C15 15.3361 14.6639 15 14.25 15C13.8361 15 13.5 15.3361 13.5 15.75V15.75" stroke="#9CA3AF" stroke-width="1.5" stroke-linecap="round" stroke-linejoin="round"/>
<path d="M1.5376 1.53751H3.0376L5.0326 10.8525C5.18356 11.5562 5.81306 12.0535 6.5326 12.0375H13.8676C14.5708 12.0364 15.1789 11.5468 15.3301 10.86L16.5676 5.28751H3.8401" stroke="#9CA3AF" stroke-width="1.5" stroke-linecap="round" stroke-linejoin="round"/>
</svg>
