<svg width="18" height="18" viewBox="0 0 18 18" fill="none" xmlns="http://www.w3.org/2000/svg">
<path d="M8.25 16.2975C8.7141 16.5655 9.2859 16.5655 9.75 16.2975L15 13.2975C15.4636 13.0298 15.7495 12.5354 15.75 12V6C15.7495 5.46465 15.4636 4.97018 15 4.7025L9.75 1.7025C9.2859 1.43455 8.7141 1.43455 8.25 1.7025L3 4.7025C2.53637 4.97018 2.25055 5.46465 2.25 6V12C2.25055 12.5354 2.53637 13.0298 3 13.2975L8.25 16.2975M9 16.5V9" stroke="#9CA3AF" stroke-width="1.5" stroke-linecap="round" stroke-linejoin="round"/>
<path d="M2.46753 5.25L9.00003 9L15.5325 5.25M5.62503 3.2025L12.375 7.065" stroke="#9CA3AF" stroke-width="1.5" stroke-linecap="round" stroke-linejoin="round"/>
</svg>
